<?xml version="1.0" encoding="UTF-8" standalone="no"?>
<!-- Creator: CorelDRAW X6 -->
<svg xmlns:dc="http://purl.org/dc/elements/1.1/" xmlns:cc="http://creativecommons.org/ns#" xmlns:rdf="http://www.w3.org/1999/02/22-rdf-syntax-ns#" xmlns:svg="http://www.w3.org/2000/svg" xmlns="http://www.w3.org/2000/svg" xmlns:sodipodi="http://sodipodi.sourceforge.net/DTD/sodipodi-0.dtd" xmlns:inkscape="http://www.inkscape.org/namespaces/inkscape" xml:space="preserve" width="4.40278in" height="3.76389in" version="1.1" style="shape-rendering:geometricPrecision; text-rendering:geometricPrecision; image-rendering:optimizeQuality; fill-rule:evenodd; clip-rule:evenodd" viewBox="0 0 4403 3764" id="svg112" sodipodi:docname="UpLift_Logo_2.svg" inkscape:export-filename="C:\Users\Owner\Desktop\UpLift_Logo_BIG.png" inkscape:export-xdpi="299.92447" inkscape:export-ydpi="299.92447" inkscape:version="0.92.2 (5c3e80d, 2017-08-06)"><metadata id="metadata116"><rdf:RDF><cc:Work rdf:about=""><dc:format>image/svg+xml</dc:format><dc:type rdf:resource="http://purl.org/dc/dcmitype/StillImage"/><dc:title/></cc:Work></rdf:RDF></metadata><sodipodi:namedview pagecolor="#ffffff" bordercolor="#666666" borderopacity="1" objecttolerance="10" gridtolerance="10" guidetolerance="10" inkscape:pageopacity="0" inkscape:pageshadow="2" inkscape:window-width="1920" inkscape:window-height="1051" id="namedview114" showgrid="false" inkscape:zoom="1.5110697" inkscape:cx="211.33344" inkscape:cy="180.66672" inkscape:window-x="-9" inkscape:window-y="-9" inkscape:window-maximized="1" inkscape:current-layer="Layer_x0020_1"/><defs id="defs66"><style type="text/css" id="style64"><![CDATA[
    .fil2 {fill:#27B4D3;fill-rule:nonzero}
    .fil1 {fill:#F4D142;fill-rule:nonzero}
    .fil0 {fill:#F79633;fill-rule:nonzero}
   ]]></style></defs><g id="Layer_x0020_1"><metadata id="CorelCorpID_0Corel-Layer"/><path class="fil0" d="M1145 3183c0,257 -118,384 -385,384 -268,0 -385,-128 -385,-384l0 -519 231 0 0 533c0,114 41,172 155,172 114,0 155,-58 155,-172l0 -533 231 0 0 519z" id="path69"/><path class="fil0" d="m 1458.5304,3220 c 0,113 32,186 128,186 93,0 126,-98 126,-186 0,-82 -31,-172 -125,-172 -56,0 -129,38 -129,172 z m -203,-315 h 201 v 74 h 2 c 42,-62 102,-93 177,-93 202,0 288,172 288,354 0,167 -89,326 -271,326 -78,0 -140,-30 -183,-88 h -2 v 285 h -211 v -859 z" id="path71" inkscape:connector-curvature="0" style="fill:#f79633;fill-rule:nonzero"/><polygon class="fil1" points="2310,2663 2310,3350 2723,3350 2723,3548 2079,3548 2079,2663 " id="polygon73" transform="translate(-27.575664)" style="fill:#f4d142;fill-rule:nonzero"/><path class="fil1" d="m 2800.5304,2905 h 211 v 643 h -211 z m 211,-81 h -211 v -161 h 211 z" id="path75" inkscape:connector-curvature="0" style="fill:#f4d142;fill-rule:nonzero"/><path class="fil1" d="m 3185.8487,3034.1061 h -102 v -136 h 102 c 0,-185 64,-242 244,-242 33,0 68,2 102,4 v 149 c -20,-2 -38,-4 -57,-4 -48,0 -78,6 -78,64 v 28 h 126 v 136 h -126 v 507 h -211 v -507 z" id="path77" inkscape:connector-curvature="0" style="fill:#f4d142;fill-rule:nonzero"/><path class="fil1" d="M4041 3041l-130 0 0 292c0,51 30,62 76,62 19,0 36,-2 55,-2l0 155c-38,1 -77,6 -115,6 -180,0 -226,-53 -226,-227l0 -286 -107 0 0 -136 107 0 0 -195 211 0 0 195 130 0 0 136z" id="path79"/><polygon class="fil0" points="3269,1135 3766,495 3185,1060 " id="polygon81"/><polygon class="fil0" points="3473,1411 4134,943 3414,1315 " id="polygon83"/><polygon class="fil0" points="3285,173 2891,882 2994,929 " id="polygon85"/><polygon class="fil0" points="3588,1735 4357,1477 3559,1626 " id="polygon87"/><path class="fil0" d="M940 2239l17 -2c5,-25 12,-50 20,-74l-135 33c34,11 67,26 98,42z" id="path89"/><polygon class="fil0" points="2731,3 2559,796 2671,812 " id="polygon91"/><polygon class="fil0" points="3605,2078 4415,2054 4415,2054 3609,1965 " id="polygon93"/><polygon class="fil0" points="629,1148 1345,1528 1391,1424 " id="polygon95" transform="translate(-13.787832,20.681748)" style="fill:#f79633;fill-rule:nonzero"/><polygon class="fil0" points="942,660 1518,1231 1591,1145 " id="polygon97" transform="translate(-34.469581,13.787832)" style="fill:#f79633;fill-rule:nonzero"/><polygon class="fil0" points="1311,331 1727,1027 1820,962 " id="polygon99" transform="translate(-41.363497)" style="fill:#f79633;fill-rule:nonzero"/><polygon class="fil0" points="2347,791 2184,-3 2184,-3 2235,807 " id="polygon101"/><polygon class="fil0" points="2115,832 1796,87 2009,870 " id="polygon103" inkscape:transform-center-x="-20.681748" inkscape:transform-center-y="-6.8939159" style="fill:#f79633;fill-rule:nonzero" transform="translate(-62.045245)"/><path class="fil2" d="M501 2234c118,-14 247,-2 373,69l59 34 19 -66c67,-227 196,-362 346,-430 104,-47 218,-63 328,-54 110,9 221,33 302,91 219,157 214,369 214,369l80 -97c122,-148 262,-224 400,-248 90,-16 180,-9 263,15 84,24 160,65 224,118 95,78 162,182 181,294l14 83 70 -47c465,-241 755,114 810,284 -17,-95 -47,-177 -89,-238 -40,-58 -91,-109 -150,-148 -59,-39 -125,-66 -196,-80 -119,-24 -248,-10 -371,53 -36,-109 -107,-208 -201,-285 -76,-62 -166,-111 -264,-139 -98,-28 -204,-36 -311,-18 -137,24 -275,90 -399,213 -42,-89 -121,-167 -223,-225 -100,-57 -221,-95 -348,-105 -127,-10 -259,8 -381,64 -162,74 -303,212 -385,436 -132,-60 -266,-74 -387,-52 -89,16 -171,50 -242,99 -71,49 -130,113 -172,187 -40,71 -64,150 -68,235 32,-169 290,-389 501,-415z" id="path105"/><path class="fil0" d="M1636 1679c126,10 248,48 348,105 101,58 181,136 223,225 124,-123 262,-190 399,-213 107,-19 213,-11 311,18 98,28 188,76 264,139 94,77 165,176 201,285 40,-21 81,-36 122,-46 26,-121 31,-248 13,-378 -83,-597 -635,-1013 -1232,-930 -454,63 -804,398 -908,818 86,-22 174,-28 259,-21z" id="path107"/><path class="fil0" d="M1245 1747l-775 -42 641 126c42,-34 88,-61 134,-84z" id="path109"/></g></svg>